<svg height="814" width="720" xmlns="http://www.w3.org/2000/svg">
<rect height="814" fill="#555" width="720"></rect>
<text fill="#7f7" font-family="Courier New" font-size="12" xml:space="preserve">
<tspan x="10" y="26">2 megabytes installed</tspan>
<tspan x="10" y="42"></tspan>
<tspan x="10" y="58">node_modules</tspan>
<tspan x="10" y="74">└─┬ superb@1.3.0 </tspan>
<tspan x="10" y="90">  ├─┬ meow@3.7.0 </tspan>
<tspan x="10" y="106">  │ ├─┬ camelcase-keys@2.1.0 </tspan>
<tspan x="10" y="122">  │ │ └── camelcase@2.1.1 </tspan>
<tspan x="10" y="138">  │ ├── decamelize@1.2.0 </tspan>
<tspan x="10" y="154">  │ ├─┬ loud-rejection@1.6.0 </tspan>
<tspan x="10" y="170">  │ │ ├─┬ currently-unhandled@0.4.1 </tspan>
<tspan x="10" y="186">  │ │ │ └── array-find-index@1.0.2 </tspan>
<tspan x="10" y="202">  │ │ └── signal-exit@3.0.2 </tspan>
<tspan x="10" y="218">  │ ├── map-obj@1.0.1 </tspan>
<tspan x="10" y="234">  │ ├── minimist@1.2.0 </tspan>
<tspan x="10" y="250">  │ ├─┬ normalize-package-data@2.3.6 </tspan>
<tspan x="10" y="266">  │ │ ├── hosted-git-info@2.4.2 </tspan>
<tspan x="10" y="282">  │ │ ├─┬ is-builtin-module@1.0.0 </tspan>
<tspan x="10" y="298">  │ │ │ └── builtin-modules@1.1.1 </tspan>
<tspan x="10" y="314">  │ │ ├── semver@5.3.0 </tspan>
<tspan x="10" y="330">  │ │ └─┬ validate-npm-package-license@3.0.1 </tspan>
<tspan x="10" y="346">  │ │   ├─┬ spdx-correct@1.0.2 </tspan>
<tspan x="10" y="362">  │ │   │ └── spdx-license-ids@1.2.2 </tspan>
<tspan x="10" y="378">  │ │   └── spdx-expression-parse@1.0.4 </tspan>
<tspan x="10" y="394">  │ ├── object-assign@4.1.1 </tspan>
<tspan x="10" y="410">  │ ├─┬ read-pkg-up@1.0.1 </tspan>
<tspan x="10" y="426">  │ │ ├─┬ find-up@1.1.2 </tspan>
<tspan x="10" y="442">  │ │ │ ├── path-exists@2.1.0 </tspan>
<tspan x="10" y="458">  │ │ │ └─┬ pinkie-promise@2.0.1 </tspan>
<tspan x="10" y="474">  │ │ │   └── pinkie@2.0.4 </tspan>
<tspan x="10" y="490">  │ │ └─┬ read-pkg@1.1.0 </tspan>
<tspan x="10" y="506">  │ │   ├─┬ load-json-file@1.1.0 </tspan>
<tspan x="10" y="522">  │ │   │ ├── graceful-fs@4.1.11 </tspan>
<tspan x="10" y="538">  │ │   │ ├─┬ parse-json@2.2.0 </tspan>
<tspan x="10" y="554">  │ │   │ │ └─┬ error-ex@1.3.1 </tspan>
<tspan x="10" y="570">  │ │   │ │   └── is-arrayish@0.2.1 </tspan>
<tspan x="10" y="586">  │ │   │ ├── pify@2.3.0 </tspan>
<tspan x="10" y="602">  │ │   │ └─┬ strip-bom@2.0.0 </tspan>
<tspan x="10" y="618">  │ │   │   └── is-utf8@0.2.1 </tspan>
<tspan x="10" y="634">  │ │   └── path-type@1.1.0 </tspan>
<tspan x="10" y="650">  │ ├─┬ redent@1.0.0 </tspan>
<tspan x="10" y="666">  │ │ ├─┬ indent-string@2.1.0 </tspan>
<tspan x="10" y="682">  │ │ │ └─┬ repeating@2.0.1 </tspan>
<tspan x="10" y="698">  │ │ │   └─┬ is-finite@1.0.2 </tspan>
<tspan x="10" y="714">  │ │ │     └── number-is-nan@1.0.1 </tspan>
<tspan x="10" y="730">  │ │ └─┬ strip-indent@1.0.1 </tspan>
<tspan x="10" y="746">  │ │   └── get-stdin@4.0.1 </tspan>
<tspan x="10" y="762">  │ └── trim-newlines@1.0.0 </tspan>
<tspan x="10" y="778">  └─┬ unique-random-array@1.0.0 </tspan>
<tspan x="10" y="794">    └── unique-random@1.0.0</tspan>
</text>
</svg>
